<svg width="13" height="14" viewBox="0 0 13 14" fill="none" xmlns="http://www.w3.org/2000/svg">
<path d="M10.9792 0.914466C11.2039 0.645686 11.5028 0.497094 11.813 0.500043C12.1232 0.502992 12.4203 0.657253 12.6417 0.930275C12.8631 1.2033 12.9914 1.57372 12.9996 1.96339C13.0078 2.35306 12.8952 2.73149 12.6856 3.01883L6.32264 13.0196C6.21323 13.1677 6.08117 13.2866 5.93437 13.3691C5.78757 13.4515 5.62904 13.496 5.46826 13.4997C5.30748 13.5035 5.14775 13.4664 4.99862 13.3908C4.8495 13.3152 4.71403 13.2026 4.60033 13.0597L0.380675 7.75667C0.263165 7.61906 0.168913 7.45311 0.103542 7.26873C0.0381707 7.08435 0.00301963 6.88531 0.000186137 6.68349C-0.00264735 6.48166 0.0268948 6.28119 0.0870496 6.09402C0.147204 5.90686 0.23674 5.73684 0.350315 5.5941C0.463889 5.45137 0.599176 5.33885 0.748105 5.26325C0.897034 5.18765 1.05655 5.15052 1.21715 5.15408C1.37774 5.15764 1.53612 5.20182 1.68283 5.28397C1.82955 5.36613 1.96159 5.48458 2.07109 5.63226L5.41045 9.82697L10.9489 0.958558C10.9589 0.943128 10.9696 0.928407 10.9808 0.914466H10.9792Z" fill="black"/>
</svg>
