<svg width="130" height="44" viewBox="0 0 130 44" fill="none" xmlns="http://www.w3.org/2000/svg">
<path d="M12.1521 14.344H15.6321C18.0641 14.344 19.9121 14.704 21.1761 15.424C22.4401 16.144 23.0721 17.064 23.0721 18.184C23.0721 19.304 22.4401 20.224 21.1761 20.944C19.9121 21.664 18.0641 22.024 15.6321 22.024H13.9281V28H12.1521V14.344ZM15.6321 21.304C16.4481 21.304 17.1921 21.248 17.8641 21.136C18.5521 21.024 19.1441 20.848 19.6401 20.608C20.1361 20.352 20.5201 20.024 20.7921 19.624C21.0801 19.224 21.2241 18.744 21.2241 18.184C21.2241 17.624 21.0801 17.152 20.7921 16.768C20.5201 16.368 20.1361 16.048 19.6401 15.808C19.1441 15.552 18.5521 15.368 17.8641 15.256C17.1761 15.144 16.4321 15.088 15.6321 15.088H13.9281V21.304H15.6321Z" fill="white"/>
<path d="M24.7146 14.344H34.3386V15.736L26.4906 15.136V20.68H32.5866L32.4426 22.072L26.4906 21.472V27.232L34.4586 26.608L34.3386 28H24.7146V14.344Z" fill="white"/>
<path d="M36.949 14.344H39.853C42.285 14.344 44.133 14.704 45.397 15.424C46.661 16.144 47.293 17.064 47.293 18.184C47.293 19.128 46.845 19.936 45.949 20.608C45.069 21.264 43.757 21.696 42.013 21.904C42.333 21.952 42.613 22.024 42.853 22.12C43.109 22.2 43.341 22.32 43.549 22.48C43.773 22.624 43.989 22.808 44.197 23.032C44.405 23.24 44.629 23.496 44.869 23.8C45.093 24.088 45.325 24.392 45.565 24.712C45.821 25.016 46.061 25.312 46.285 25.6C46.525 25.888 46.733 26.144 46.909 26.368C47.085 26.576 47.205 26.72 47.269 26.8C47.557 27.136 47.877 27.4 48.229 27.592C48.597 27.784 48.949 27.88 49.285 27.88C49.125 27.928 48.965 27.976 48.805 28.024C48.677 28.056 48.533 28.08 48.373 28.096C48.213 28.128 48.061 28.144 47.917 28.144C47.357 28.144 46.837 28.032 46.357 27.808C45.877 27.584 45.381 27.144 44.869 26.488C44.661 26.232 44.453 25.976 44.245 25.72C44.069 25.496 43.869 25.24 43.645 24.952C43.421 24.664 43.197 24.384 42.973 24.112C42.653 23.696 42.357 23.36 42.085 23.104C41.829 22.832 41.581 22.624 41.341 22.48C41.117 22.32 40.893 22.208 40.669 22.144C40.461 22.08 40.245 22.04 40.021 22.024H38.725V28H36.949V14.344ZM38.725 21.304H39.853C40.669 21.304 41.413 21.248 42.085 21.136C42.773 21.024 43.365 20.848 43.861 20.608C44.357 20.352 44.741 20.024 45.013 19.624C45.301 19.224 45.445 18.744 45.445 18.184C45.445 17.624 45.301 17.152 45.013 16.768C44.741 16.368 44.357 16.048 43.861 15.808C43.365 15.552 42.773 15.368 42.085 15.256C41.397 15.144 40.653 15.088 39.853 15.088H38.725V21.304Z" fill="white"/>
<path d="M49.863 14.344H59.607L59.463 15.544L51.639 15.088V20.68H57.735L57.591 21.88L51.639 21.448V28H49.863V14.344Z" fill="white"/>
<path d="M61.4412 14.344H71.0652V15.736L63.2172 15.136V20.68H69.3132L69.1692 22.072L63.2172 21.472V27.232L71.1852 26.608L71.0652 28H61.4412V14.344Z" fill="white"/>
<path d="M79.5741 14.344C80.4541 14.344 81.2941 14.488 82.0941 14.776C82.9101 15.064 83.6141 15.464 84.2061 15.976V18.328C83.9181 17.848 83.5741 17.416 83.1741 17.032C82.7901 16.632 82.3741 16.288 81.9261 16C81.4941 15.712 81.0301 15.488 80.5341 15.328C80.0541 15.168 79.5741 15.088 79.0941 15.088C78.3101 15.088 77.6141 15.232 77.0061 15.52C76.4141 15.792 75.9181 16.176 75.5181 16.672C75.1181 17.152 74.8141 17.72 74.6061 18.376C74.4141 19.016 74.3181 19.712 74.3181 20.464C74.3181 21.488 74.4781 22.416 74.7981 23.248C75.1181 24.08 75.5421 24.792 76.0701 25.384C76.5981 25.976 77.1981 26.432 77.8701 26.752C78.5581 27.056 79.2621 27.208 79.9821 27.208C80.3661 27.208 80.7581 27.152 81.1581 27.04C81.5581 26.912 81.9501 26.752 82.3341 26.56C82.7181 26.352 83.0701 26.128 83.3901 25.888C83.7261 25.632 83.9981 25.384 84.2061 25.144V26.32C83.5821 26.848 82.8381 27.264 81.9741 27.568C81.1261 27.856 80.2621 28 79.3821 28C78.4381 28 77.5421 27.824 76.6941 27.472C75.8621 27.104 75.1261 26.616 74.4861 26.008C73.8461 25.384 73.3421 24.664 72.9741 23.848C72.6061 23.016 72.4221 22.128 72.4221 21.184C72.4221 20.24 72.6141 19.352 72.9981 18.52C73.3981 17.688 73.9261 16.968 74.5821 16.36C75.2381 15.736 75.9981 15.248 76.8621 14.896C77.7261 14.528 78.6301 14.344 79.5741 14.344Z" fill="white"/>
<path d="M98.4284 15.736L92.9083 15.112V28H91.1323V15.136L85.6364 15.736V14.344H98.4284V15.736Z" fill="white"/>
<path d="M101.842 14.344V22.72C101.842 23.36 101.938 23.952 102.13 24.496C102.338 25.024 102.634 25.48 103.018 25.864C103.402 26.248 103.874 26.544 104.434 26.752C105.01 26.96 105.666 27.064 106.402 27.064C107.138 27.064 107.762 26.96 108.274 26.752C108.802 26.528 109.234 26.224 109.57 25.84C109.906 25.456 110.154 25 110.314 24.472C110.474 23.928 110.554 23.336 110.554 22.696V14.344H111.442V22.696C111.442 23.48 111.33 24.2 111.106 24.856C110.882 25.512 110.538 26.072 110.074 26.536C109.61 27 109.018 27.36 108.298 27.616C107.594 27.872 106.754 28 105.778 28C104.818 28 103.978 27.872 103.258 27.616C102.538 27.344 101.938 26.976 101.458 26.512C100.994 26.048 100.642 25.496 100.402 24.856C100.178 24.2 100.066 23.48 100.066 22.696V14.344H101.842Z" fill="white"/>
<path d="M115.791 14.344L121.743 24.208L127.695 14.344H129.495V28H127.719V15.952L121.263 26.656L114.831 16.288V28H113.943V14.344H115.791Z" fill="white"/>
<path fill-rule="evenodd" clip-rule="evenodd" d="M0.5 0.5H22V1.5H1.5V42.5H22V43.5H0.5V0.5Z" fill="white"/>
</svg>
