<svg width="63" height="63" viewBox="0 0 63 63" fill="none" xmlns="http://www.w3.org/2000/svg">
<path d="M5.25 19.75C5.25 17.5409 7.04086 15.75 9.25 15.75H16.2343C17.5717 15.75 18.8206 15.0816 19.5625 13.9688L22.4375 9.6562C23.1794 8.54341 24.4283 7.875 25.7657 7.875H37.2343C38.5717 7.875 39.8206 8.5434 40.5625 9.6562L43.4375 13.9688C44.1794 15.0816 45.4283 15.75 46.7657 15.75H53.75C55.9591 15.75 57.75 17.5409 57.75 19.75V51.125C57.75 53.3341 55.9591 55.125 53.75 55.125H9.25C7.04086 55.125 5.25 53.3341 5.25 51.125V19.75Z" stroke="#14142B" stroke-width="2" stroke-linecap="round" stroke-linejoin="round"/>
<circle cx="31.5" cy="34.125" r="10.5" stroke="#14142B" stroke-width="2" stroke-linecap="round" stroke-linejoin="round"/>
</svg>
