<svg width="40" height="40" viewBox="0 0 40 40" fill="none" xmlns="http://www.w3.org/2000/svg">
<path fill-rule="evenodd" clip-rule="evenodd" d="M20 38C29.9411 38 38 29.9411 38 20C38 10.0589 29.9411 2 20 2C10.0589 2 2 10.0589 2 20C2 29.9411 10.0589 38 20 38ZM20 40C31.0457 40 40 31.0457 40 20C40 8.9543 31.0457 0 20 0C8.9543 0 0 8.9543 0 20C0 31.0457 8.9543 40 20 40Z" fill="black" fill-opacity="0.48"/>
<path fill-rule="evenodd" clip-rule="evenodd" d="M16.7581 13.2271C16.4248 13.0263 16 13.2663 16 13.6554V26.3446C16 26.7337 16.4248 26.9737 16.7581 26.7729L27.2855 20.4282C27.608 20.2339 27.608 19.7662 27.2855 19.5718L16.7581 13.2271ZM14 13.6554C14 11.7099 16.1242 10.51 17.7905 11.5142L28.3178 17.8588C29.9306 18.8308 29.9306 21.1692 28.3178 22.1412L17.7905 28.4858C16.1242 29.49 14 28.2901 14 26.3446V13.6554Z" fill="black" fill-opacity="0.48"/>
</svg>
